<svg width="35" height="35" viewBox="0 0 35 35" fill="none" xmlns="http://www.w3.org/2000/svg">
<path d="M5.83337 17.5C5.83337 17.8868 5.98702 18.2577 6.26051 18.5312C6.534 18.8047 6.90493 18.9584 7.29171 18.9584H18.3605L15.0063 22.2979C14.8696 22.4335 14.7611 22.5948 14.6871 22.7725C14.613 22.9502 14.5749 23.1408 14.5749 23.3334C14.5749 23.5259 14.613 23.7165 14.6871 23.8942C14.7611 24.0719 14.8696 24.2332 15.0063 24.3688C15.1419 24.5055 15.3032 24.614 15.4809 24.688C15.6586 24.762 15.8492 24.8001 16.0417 24.8001C16.2342 24.8001 16.4248 24.762 16.6025 24.688C16.7803 24.614 16.9416 24.5055 17.0771 24.3688L22.9105 18.5354C23.0432 18.3967 23.1473 18.2332 23.2167 18.0542C23.3626 17.6991 23.3626 17.3009 23.2167 16.9459C23.1473 16.7668 23.0432 16.6033 22.9105 16.4646L17.0771 10.6313C16.9412 10.4953 16.7797 10.3874 16.6021 10.3139C16.4244 10.2403 16.234 10.2024 16.0417 10.2024C15.8494 10.2024 15.659 10.2403 15.4813 10.3139C15.3037 10.3874 15.1423 10.4953 15.0063 10.6313C14.8703 10.7672 14.7625 10.9287 14.6889 11.1063C14.6153 11.284 14.5774 11.4744 14.5774 11.6667C14.5774 11.859 14.6153 12.0494 14.6889 12.2271C14.7625 12.4047 14.8703 12.5661 15.0063 12.7021L18.3605 16.0417H7.29171C6.90493 16.0417 6.534 16.1953 6.26051 16.4688C5.98702 16.7423 5.83337 17.1132 5.83337 17.5ZM24.7917 2.91669H10.2084C9.04805 2.91669 7.93525 3.37762 7.11478 4.1981C6.29431 5.01857 5.83337 6.13137 5.83337 7.29169V11.6667C5.83337 12.0535 5.98702 12.4244 6.26051 12.6979C6.534 12.9714 6.90493 13.125 7.29171 13.125C7.67848 13.125 8.04941 12.9714 8.3229 12.6979C8.59639 12.4244 8.75004 12.0535 8.75004 11.6667V7.29169C8.75004 6.90491 8.90369 6.53398 9.17718 6.26049C9.45067 5.987 9.8216 5.83335 10.2084 5.83335H24.7917C25.1785 5.83335 25.5494 5.987 25.8229 6.26049C26.0964 6.53398 26.25 6.90491 26.25 7.29169V27.7084C26.25 28.0951 26.0964 28.4661 25.8229 28.7396C25.5494 29.013 25.1785 29.1667 24.7917 29.1667H10.2084C9.8216 29.1667 9.45067 29.013 9.17718 28.7396C8.90369 28.4661 8.75004 28.0951 8.75004 27.7084V23.3334C8.75004 22.9466 8.59639 22.5756 8.3229 22.3022C8.04941 22.0287 7.67848 21.875 7.29171 21.875C6.90493 21.875 6.534 22.0287 6.26051 22.3022C5.98702 22.5756 5.83337 22.9466 5.83337 23.3334V27.7084C5.83337 28.8687 6.29431 29.9815 7.11478 30.8019C7.93525 31.6224 9.04805 32.0834 10.2084 32.0834H24.7917C25.952 32.0834 27.0648 31.6224 27.8853 30.8019C28.7058 29.9815 29.1667 28.8687 29.1667 27.7084V7.29169C29.1667 6.13137 28.7058 5.01857 27.8853 4.1981C27.0648 3.37762 25.952 2.91669 24.7917 2.91669Z" fill="white" fill-opacity="0.85"/>
</svg>
